# xmcd
#
# Track frame offsets: 
#        150
#        12819
#        45068
#        70694
#        87404
#        103237
#        117321
#        133531
#        155284
#        174342
#        191580
#        205397
#        226938
#        282488
#        305846
#
# Disc length: 4245 seconds
#
# Revision: 0
# Processed by: cddbd v1.5.2PL0 Copyright (c) Steve Scherf et al.
# Submitted via: ExactAudioCopy v0.99pb5
#
DISCID=c710930f
DTITLE=Henning Pertiet - Masterpieces, Vol.1
DYEAR=2012
DGENRE=Blues
TTITLE0=Spannish Boogie
TTITLE1=New House Blues
TTITLE2=Misses L and Mr B
TTITLE3=Honky Tonk Train Blues
TTITLE4=Blue Monk
TTITLE5=Fo Day Blues
TTITLE6=G-Jam Boogie
TTITLE7=Willer Miller
TTITLE8=Dd´s Blues
TTITLE9=Otis E-Boogie
TTITLE10=Boogie No. 5
TTITLE11=Meade´s Special Tee
TTITLE12=Lingony Ext.
TTITLE13=Sphere´s Blues
TTITLE14=Some Dollar
EXTD=
EXTT0=
EXTT1=
EXTT2=
EXTT3=
EXTT4=
EXTT5=
EXTT6=
EXTT7=
EXTT8=
EXTT9=
EXTT10=
EXTT11=
EXTT12=
EXTT13=
EXTT14=
PLAYORDER=
